<?xml version="1.0" encoding="iso-8859-1"?>
<!-- Generator: Adobe Illustrator 19.0.0, SVG Export Plug-In . SVG Version: 6.00 Build 0)  -->
<svg xmlns="http://www.w3.org/2000/svg" xmlns:xlink="http://www.w3.org/1999/xlink" version="1.1" id="Layer_1" x="0px" y="0px" viewBox="0 0 502 502" style="enable-background:new 0 0 502 502;" xml:space="preserve" width="512" height="512">
<g>
	<g>
		<rect x="112.446" y="104.049" style="fill:#E6E6E6;" width="277.108" height="36.024"/>
		<polygon style="fill:#C1272D;" points="132.599,140.073 141.415,232.442 157.46,400.554 166.188,492 335.812,492 344.539,400.554     360.585,232.442 369.401,140.073   "/>
		<rect x="252.603" y="10" style="fill:#754C24;" width="32.24" height="92.98"/>
	</g>
	<g>
		<path d="M389.554,94.049h-94.711V10c0-5.522-4.478-10-10-10h-32.24c-5.522,0-10,4.478-10,10v84.049H112.446    c-5.522,0-10,4.478-10,10v36.024c0,5.522,4.478,10,10,10h11.062l32.725,342.877c0.49,5.132,4.8,9.05,9.955,9.05h169.624    c5.155,0,9.465-3.918,9.955-9.05l32.725-342.877h11.062c5.522,0,10-4.478,10-10v-36.024    C399.554,98.526,395.077,94.049,389.554,94.049z M262.603,20h12.24v72.98h-12.24V20z M326.721,482H175.279l-31.68-331.927h214.802    L326.721,482z M122.446,130.073v-16.024h257.108v16.024H122.446z"/>
		<path d="M171.216,221.443l1.659,18.305c0.471,5.193,4.832,9.099,9.947,9.099c0.303,0,0.607-0.014,0.914-0.042    c5.501-0.498,9.556-5.361,9.057-10.861l-1.659-18.305c-0.498-5.5-5.369-9.563-10.861-9.057    C174.772,211.08,170.717,215.943,171.216,221.443z"/>
		<path d="M186.908,283.804c-5.5,0.498-9.556,5.361-9.057,10.861l12.577,138.817c0.471,5.193,4.832,9.099,9.947,9.099    c0.302,0,0.607-0.014,0.914-0.042c5.5-0.498,9.556-5.361,9.057-10.861L197.769,292.86    C197.271,287.36,192.405,283.286,186.908,283.804z"/>
	</g>
</g>















</svg>
