<?xml version="1.0" encoding="iso-8859-1"?>
<!-- Generator: Adobe Illustrator 19.0.0, SVG Export Plug-In . SVG Version: 6.00 Build 0)  -->
<svg version="1.1" id="Layer_1" xmlns="http://www.w3.org/2000/svg" xmlns:xlink="http://www.w3.org/1999/xlink" x="0px" y="0px"
	 viewBox="0 0 512 512" style="enable-background:new 0 0 512 512;" xml:space="preserve">
<path style="fill:#BF360C;" d="M32,226.2c0-8,9.6-12.4,17.6-12.4h419.2c8,0,11.2,4.4,11.2,12.4v3.6c0,8-2.4,16-10,16h-30.8
	c-2.4-4-4.8-1.6-8.4-1.6s-6-2.4-8.4,1.6h-51.6c-2.4-4-4.8-1.6-8.4-1.6c-3.2,0-6-2.4-8.4,1.6h-51.6c-2.4-4-5.2-1.6-8.4-1.6
	s-6-2.4-8.4,1.6h-52c-2.4-4-4.8-1.6-8.4-1.6c-3.2,0-6-2.4-8.4,1.6h-52c-2.4-4-5.2-1.6-8.4-1.6s-6-2.4-8.4,1.6H96
	c-2.4-4-5.2-1.6-8.4-1.6s-6-2.4-8.4,1.6H49.6c-8,0-18.4-8-18.4-16v-3.6H32z"/>
<path style="fill:#FFB74D;" d="M490.4,321.8H26h-4c-8.8,0-18-7.2-18-16v-4c0-8.8,9.2-16,18-16h31.2h69.2h68.8H260h68.4h68.4h67.6
	H494c8.8,0,14,7.2,14,16v4c0,8.8-5.2,16-14,16H490.4z"/>
<path style="fill:#BF360C;" d="M494,337.8c8.8,0,14,7.2,14,16v4c0,8.8-5.2,16-14,16h-12H336v-3.2l96-32.8h58.4H494z"/>
<path style="fill:#7CB342;" d="M16,244.2c16,0,18.8,16,36,16c13.6,0,18-10.4,27.6-14.4h16.8c9.6,4,12,14.4,26,14.4
	c13.6,0,16.4-10.4,26-14.4h16.8c9.6,4,12,14.4,26,14.4s16.4-10.4,26-14.4H234c9.6,4,12,14.4,26,14.4c13.6,0,16.4-10.4,26-14.4h16.8
	c9.6,4,12,14.4,26,14.4c13.6,0,16.4-10.4,26-14.4h16.8c9.6,4,12,14.4,26,14.4c13.6,0,16.4-10.4,25.6-14.4H440
	c9.2,4,10.8,14.4,24.4,14.4c17.2,0,16.4-16,32.4-16v23.6c-16,0-15.2,16-32.4,16s-15.6-16-32.8-16s-16.8,16-34,16s-17.2-16-34-16
	s-17.2,16-34.4,16s-17.2-16-34.4-16s-17.2,16-34.4,16s-17.2-16-34.4-16s-17.2,16-34.4,16s-17.2-16-34.4-16s-17.2,16-34.4,16
	s-17.2-16-34.4-16s-18.4,16-35.6,16c-17.2,0-20-16-36-16v-23.6H16z"/>
<g>
	<path style="fill:#FFCC80;" d="M252.4,164.2c0,4.4,3.6,7.6,7.6,7.6c4.4,0,7.6-3.6,7.6-7.6l-7.6-7.6
		C256,156.6,252.4,160.2,252.4,164.2z M492,213.8h-23.2H49.6H28c0-76,104-139.6,232-139.6C388.4,74.2,492,137.8,492,213.8z
		 M124.4,164.2c0,4.4,3.2,7.6,7.6,7.6c4,0,7.6-3.6,7.6-7.6l-7.6-7.6C128,156.6,124.4,159.8,124.4,164.2z M372,131.8l-7.6-7.6
		c-4.4,0-7.6,3.6-7.6,7.6c0,4.4,3.6,7.6,7.6,7.6S372,136.2,372,131.8z M203.6,115.8l-7.6-7.6c-4.4,0-7.6,3.6-7.6,7.6
		c0,4.4,3.6,7.6,7.6,7.6S203.6,120.2,203.6,115.8z M191.6,168.2L191.6,168.2L191.6,168.2L191.6,168.2z"/>
	<path style="fill:#FFCC80;" d="M480,373.8v30c0,17.6-10.4,34-28,34H68c-17.6,0-36-16.4-36-34v-30h305.2H480z"/>
</g>
<path style="fill:#FFA726;" d="M364.4,124.2l7.6,7.6c0,4.4-3.2,7.6-7.6,7.6s-7.6-3.6-7.6-7.6C356.8,127.8,360,124.2,364.4,124.2z"/>
<path style="fill:#BF360C;" d="M336,370.6v3.2H34H22c-8.8,0-18-7.2-18-16v-4c0-8.8,9.2-16,18-16h2.4h106l21.6,22.4l64.8-22.4h88.4
	L336,370.6z"/>
<g>
	<path style="fill:#FFA726;" d="M267.6,164.2c0,4.4-3.6,7.6-7.6,7.6c-4.4,0-7.6-3.6-7.6-7.6c0-4.4,3.6-7.6,7.6-7.6L267.6,164.2z"/>
	<path style="fill:#FFA726;" d="M188.4,115.8c0-4,3.6-7.6,7.6-7.6l7.6,7.6c0,4.4-3.6,7.6-7.6,7.6S188.4,120.2,188.4,115.8z"/>
</g>
<path style="fill:#FFCC80;" d="M191.6,168.2L191.6,168.2L191.6,168.2L191.6,168.2z"/>
<path style="fill:#FFA726;" d="M132,156.6l7.6,7.6c0,4.4-3.2,7.6-7.6,7.6c-4,0-7.6-3.6-7.6-7.6C124.4,159.8,128,156.6,132,156.6z"/>
<polygon style="fill:#FFCA28;" points="496,321.8 16,321.8 18,337.8 134,337.8 152.4,357.4 206.4,337.8 309.2,337.8 337.2,367 
	420.8,337.8 496,337.8 "/>
<path d="M452,441.8H68c-20.4,0-40-18.8-40-38v-30c0-2.4,1.6-4,4-4s4,1.6,4,4v30c0,14.8,16,30,32,30h384c15.6,0,24-15.2,24-30v-30
	c0-2.4,1.6-4,4-4s4,1.6,4,4v30C484,422.2,472.8,441.8,452,441.8z"/>
<path d="M76,249.8H50.4c-9.6,0-22.4-9.6-22.4-20v-3.6c0-9.6,8-16.4,18.8-16.4c2.4,0,4,1.6,4,4s-1.6,4-4,4c-5.2,0-10.8,2.8-10.8,8.4
	v3.6c0,5.2,8,12,14.4,12H76c2.4,0,4,1.6,4,4S78.4,249.8,76,249.8z"/>
<path d="M148,249.8h-48c-2.4,0-4-1.6-4-4s1.6-4,4-4h48c2.4,0,4,1.6,4,4S150.4,249.8,148,249.8z"/>
<path d="M216,249.8h-48c-2.4,0-4-1.6-4-4s1.6-4,4-4h48c2.4,0,4,1.6,4,4S218.4,249.8,216,249.8z"/>
<path d="M284,249.8h-48c-2.4,0-4-1.6-4-4s1.6-4,4-4h48c2.4,0,4,1.6,4,4S286.4,249.8,284,249.8z"/>
<path d="M352,249.8h-48c-2.4,0-4-1.6-4-4s1.6-4,4-4h48c2.4,0,4,1.6,4,4S354.4,249.8,352,249.8z"/>
<path d="M420,249.8h-48c-2.4,0-4-1.6-4-4s1.6-4,4-4h48c2.4,0,4,1.6,4,4S422.4,249.8,420,249.8z"/>
<path d="M470,249.8h-30c-2.4,0-4-1.6-4-4s1.6-4,4-4h30c5.2,0,6-7.6,6-12v-3.6c0-7.2-5.6-8.4-8.8-8.4c-2.4,0-4-1.6-4-4s1.6-4,4-4
	c10,0,16.8,6.8,16.8,16.4v3.6C484,242.2,478.8,249.8,470,249.8z"/>
<path d="M494,377.8H22c-10.4,0-22-8.8-22-20v-4c0-11.6,11.6-20,22-20h106c2.4,0,4,1.6,4,4s-1.6,4-4,4H22c-6.4,0-14,5.2-14,12v4
	c0,6,6.8,12,14,12h472c6.8,0,10-6,10-12v-4c0-5.6-2.8-12-10-12h-66c-2.4,0-4-1.6-4-4s1.6-4,4-4h66c10.4,0,18,8,18,20v4
	C512,369.4,504.4,377.8,494,377.8z"/>
<path d="M304,341.8h-88c-2.4,0-4-1.6-4-4s1.6-4,4-4h88c2.4,0,4,1.6,4,4S306.4,341.8,304,341.8z"/>
<path d="M152.4,364.2c-1.2,0-2-0.4-2.8-1.2l-23.2-22.4c-1.6-1.6-1.6-4,0-5.6s4-1.6,5.6,0l21.6,20.8l61.2-21.6c2-0.8,4.4,0.4,5.2,2.4
	s-0.4,4.4-2.4,5.2L154,364.2C153.2,364.2,152.8,364.2,152.4,364.2z"/>
<path d="M337.2,374.6c-1.2,0-2-0.4-2.8-1.2l-33.2-32.8c-1.6-1.6-1.6-4,0-5.6s4-1.6,5.6,0l31.6,31.2l88.4-32c2-0.8,4.4,0.4,5.2,2.4
	s-0.4,4.4-2.4,5.2l-90.8,32.8C338.4,374.6,338,374.6,337.2,374.6z"/>
<path d="M492,217.8H28c-2.4,0-4-1.6-4-4c0-79.2,106-143.6,236-143.6s236,64.4,236,143.6C496,216.2,494.4,217.8,492,217.8z M32,209.8
	h456c-3.6-72-106.4-131.6-228-131.6C138.8,78.2,36,137.8,32,209.8z"/>
<path d="M24,341.8c-6.8,0-12-5.2-12-12s6.4-11.6,12.8-12c2.4-0.4,4,1.2,4.4,3.6s-1.2,4-3.6,4.4c-2.8,0.4-5.6,2.4-5.6,4
	c0,2.4,1.6,4,4,4s4,1.6,4,4S26,341.8,24,341.8z"/>
<path d="M490,341.8c-2.4,0-4-1.6-4-4s1.6-4,4-4c2,0,4-2,4-4c0-1.2-0.4-2-1.2-2.8c-0.4-0.4-1.6-0.8-3.2-0.8c-2.4,0-4-1.6-4-4
	s1.6-4,4-4c2.8,0,6.8,0.8,8.8,3.6c2,2.4,3.2,5.2,3.2,8.4C502,336.2,496.4,341.8,490,341.8z"/>
<path d="M463.6,287.8c-10.4,0-15.2-5.2-19.2-9.2c-3.6-3.6-6.8-6.8-13.6-6.8s-10,3.2-14,6.8c-4.4,4.4-9.6,9.2-19.6,9.2
	s-15.2-4.8-20-9.2c-4-4-7.6-6.8-14.4-6.8s-10.4,3.2-14.4,6.8c-4.4,4.4-9.6,9.2-20,9.2c-10,0-15.2-4.8-20-9.2c-4-4-7.6-6.8-14.4-6.8
	c-7.2,0-10.4,3.2-14.4,6.8c-4.4,4.4-9.6,9.2-20,9.2c-10,0-15.2-4.8-20-9.2c-4-4-7.6-6.8-14.4-6.8c-6.8,0-10.4,3.2-14.4,6.8
	c-4.4,4.4-9.6,9.2-20,9.2c-10,0-15.2-4.8-20-9.2c-4-4-7.6-6.8-14.4-6.8c-7.2,0-10.4,3.2-14.4,6.8c-4.8,4.4-10,9.2-20,9.2
	s-15.2-4.8-20-8.8c-4.4-4-7.6-6.8-14.8-6.8s-10.8,3.2-14.8,6.8c-4.8,4-10,8.8-20.4,8.8c-10,0-16-4.8-21.2-9.2
	c-4.4-3.6-8.4-6.8-14.8-6.8c-2.4,0-4-1.6-4-4v-23.6c0-2.4,1.6-4,4-4c9.2,0,14.8,4.4,20,8.8c4.8,4,8.8,7.2,16.4,7.2l0,0
	c7.2,0,11.2-3.2,15.6-7.2c3.2-2.4,6-5.2,10.4-6.8c2.8-1.2,6.4-2,10-2s7.2,0.8,10,2c4,1.6,7.2,4.8,10,7.2c4,4,7.6,6.8,14.4,6.8
	c7.2,0,10.4-3.2,14.4-6.8c2.8-2.4,5.6-5.2,10-7.2c2.8-1.2,6.4-2,10-2s6.8,0.8,10,2c4.4,1.6,7.2,4.8,10,7.2c4,4,7.6,6.8,14.4,6.8
	c7.2,0,10.4-3.2,14.4-6.8c2.8-2.4,5.6-5.2,10-7.2c2.8-1.2,6-2,10-2c3.6,0,6.8,0.8,10,2c4,1.6,7.2,4.8,10,7.2c4,4,7.6,6.8,14.4,6.8
	c6.8,0,10.4-3.2,14.4-6.8c2.8-2.4,5.6-5.2,10-7.2c2.8-1.2,6.4-2,10-2s6.8,0.8,10,2c4.4,1.6,7.2,4.8,10,7.2c4,4,7.2,6.8,14.4,6.8
	s10.4-3.2,14.4-6.8c2.8-2.4,5.6-5.2,10-7.2c2.8-1.2,6-2,10-2c3.6,0,6.8,0.8,10,2c4,1.6,7.2,4.8,10,7.2c4,4,7.2,6.8,14.4,6.8
	c6.8,0,10-3.2,14.4-6.8c2.8-2.4,5.6-5.2,10-7.2c2.8-1.2,6-2,9.6-2s6.8,0.4,9.6,2c4.4,2,7.2,4.8,9.6,7.2c4,3.6,6.8,6.8,13.6,6.8
	c7.2,0,10-3.2,14-6.8c4-4,8.8-8.8,18.4-8.8c2.4,0,4,1.6,4,4v23.6c0,2.4-1.6,4-4,4c-6,0-9.2,2.8-12.8,6.4
	C479.2,282.6,474,287.8,463.6,287.8z M430.8,263.8c10.4,0,15.2,5.2,19.2,9.2c3.6,3.6,6.8,6.8,13.6,6.8c7.2,0,10-3.2,14-6.8
	c3.6-3.6,7.6-7.6,14.4-8.8v-15.6c-3.6,0.8-6,3.2-8.8,6c-4,4-9.2,9.2-19.6,9.2c-10,0-15.2-5.2-19.2-9.2c-2.4-2.4-4.4-4.4-7.2-5.6
	c-2-0.8-4-1.2-6.4-1.2s-4.8,0.4-6.4,1.2c-2.8,1.2-5.2,3.2-7.6,5.6c-4.4,4.4-9.6,9.2-19.6,9.2s-15.2-4.8-20-9.2
	c-2.4-2.4-4.8-4.4-7.6-5.6c-2-0.8-4-1.2-6.8-1.2s-4.8,0.4-6.8,1.2c-2.8,1.2-5.2,3.2-7.6,5.6c-4.4,4.4-9.6,9.2-20,9.2
	c-10,0-15.2-4.8-20-9.2c-2.4-2.4-4.8-4.4-7.6-5.6c-4-1.6-9.6-1.6-13.6,0c-2.8,1.2-5.2,3.2-7.6,5.6c-4.4,4.4-9.6,9.2-20,9.2
	c-10,0-15.2-4.8-20-9.2c-2.4-2.4-4.8-4.4-7.6-5.6c-2-0.8-4-1.2-6.8-1.2s-4.8,0.4-6.8,1.2c-2.8,1.2-5.2,3.2-7.6,5.6
	c-4.4,4.4-9.6,9.2-20,9.2c-10,0-15.2-4.8-20-9.2c-2.4-2.4-4.8-4.4-7.6-5.6c-2-0.8-4.4-1.2-6.8-1.2c-2.8,0-4.8,0.4-6.8,1.2
	c-2.8,1.2-5.2,3.2-7.6,5.6c-4.4,4.4-9.6,9.2-20,9.2c-10,0-15.2-4.8-20-9.2c-2.4-2.4-4.8-4.4-7.6-5.6c-2-0.8-4-1.2-6.8-1.2
	s-4.8,0.4-6.8,1.2c-3.2,1.2-5.6,3.6-8.4,5.6c-5.2,4.4-10.8,8.8-20.8,8.8l0,0c-10,0-16-4.8-21.2-9.2c-3.6-2.8-6.8-5.2-10.8-6.4v15.6
	c6.8,1.2,11.6,4.8,16,8.4c4.8,4,8.8,7.2,16.4,7.2c7.2,0,10.8-3.2,14.8-6.8c4.8-4.4,10-8.8,20.4-8.8c10,0,15.6,4.8,20,8.8
	s7.6,6.8,14.8,6.8s10.4-3.2,14.4-6.8c4.8-4.4,10-9.2,20-9.2s15.2,4.8,20,9.2c4,4,7.6,6.8,14.4,6.8c7.2,0,10.4-3.2,14.4-6.8
	c4.4-4.4,9.6-9.2,20-9.2c10,0,15.2,4.8,20,9.2c4,4,7.6,6.8,14.4,6.8c7.2,0,10.4-3.2,14.4-6.8c4.4-4.4,9.6-9.2,20-9.2
	c10,0,15.2,4.8,20,9.2c4,4,7.6,6.8,14.4,6.8c6.8,0,10.4-3.2,14.4-6.8c4.4-4.4,9.6-9.2,20-9.2s15.2,4.8,20,9.2c4,4,7.6,6.8,14.4,6.8
	c6.8,0,10-3.2,14-6.8C415.2,268.6,420.4,263.8,430.8,263.8z"/>
<path d="M260,175.8c-6.4,0-11.6-5.2-11.6-11.6s5.2-11.6,11.6-11.6c2.4,0,4,1.6,4,4s-1.6,4-4,4c-2,0-3.6,1.6-3.6,3.6s1.6,3.6,3.6,3.6
	s3.6-1.6,3.6-3.6c0-2.4,1.6-4,4-4s4,1.6,4,4C271.6,170.6,266.4,175.8,260,175.8z"/>
<path d="M364.4,143.4c-6.4,0-11.6-5.2-11.6-11.6s5.2-11.6,11.6-11.6c2.4,0,4,1.6,4,4s-1.6,4-4,4c-2,0-3.6,1.6-3.6,3.6
	s1.6,3.6,3.6,3.6s3.6-1.6,3.6-3.6c0-2.4,1.6-4,4-4s4,1.6,4,4C376,138.2,370.8,143.4,364.4,143.4z"/>
<path d="M132,175.8c-6.4,0-11.6-5.2-11.6-11.6s5.2-11.6,11.6-11.6c2.4,0,4,1.6,4,4s-1.6,4-4,4c-2,0-3.6,1.6-3.6,3.6s1.6,3.6,3.6,3.6
	s3.6-1.6,3.6-3.6c0-2.4,1.6-4,4-4s4,1.6,4,4C143.6,170.6,138.4,175.8,132,175.8z"/>
<path d="M196,127.8c-6.4,0-11.6-5.2-11.6-11.6s5.2-11.6,11.6-11.6c2.4,0,4,1.6,4,4s-1.6,4-4,4c-2,0-3.6,1.6-3.6,3.6s1.6,3.6,3.6,3.6
	s3.6-1.6,3.6-3.6c0-2.4,1.6-4,4-4s4,1.6,4,4C207.6,122.2,202.4,127.8,196,127.8z"/>
<path d="M248,119.8L248,119.8c-2.4,0-4-1.6-4-4s1.6-4,4-4c1.6,0,3.2,0.8,3.6,2.4c0.4,0.4,0.4,1.2,0.4,1.6
	C252,118.2,250.4,119.8,248,119.8z"/>
<path d="M146,129.8c-1.2,0-2-0.4-2.8-1.2c-0.8-0.8-1.2-1.6-1.2-2.8c0-1.2,0.4-2,1.2-2.8c1.6-1.6,4-1.6,5.6,0c0.8,0.8,1.2,2,1.2,2.8
	c0,1.2-0.4,2-1.2,2.8C148,129.4,147.2,129.8,146,129.8z"/>
<path d="M191.6,172.2c-2.4,0-4-2-4-4s1.6-4,4-4l0,0c2.4,0,4,1.6,4,4S194,172.2,191.6,172.2z"/>
<path d="M304.4,144.2L304.4,144.2c-2.4,0-4-1.6-4-4s1.6-4,4-4c1.6,0,3.2,0.8,3.6,2.4c0.4,0.4,0.4,1.2,0.4,1.6
	C308.4,142.6,306.4,144.2,304.4,144.2z"/>
<path d="M312,159.8c-2.4,0-4-1.6-4-4c0-1.6,0.8-3.2,2.4-3.6c0.4-0.4,1.2-0.4,1.6-0.4c2.4,0,4,1.6,4,4l0,0
	C316,158.2,314.4,159.8,312,159.8z"/>
<path d="M384,187.8c-2.4,0-4-1.6-4-4c0-1.6,0.8-3.2,2.4-3.6c0.4-0.4,1.2-0.4,1.6-0.4c2.4,0,4,1.6,4,4l0,0
	C388,186.2,386.4,187.8,384,187.8z"/>
<path d="M416,151.8L416,151.8c-2.4,0-4-1.6-4-4s1.6-4,4-4c1.6,0,2.8,0.8,3.6,2.4c0.4,0.4,0.4,1.2,0.4,1.6
	C420,150.2,418.4,151.8,416,151.8z"/>
<path d="M82,185.8c-1.2,0-2-0.4-2.8-1.2c-0.8-0.8-1.2-1.6-1.2-2.8c0-1.2,0.4-2,1.2-2.8c1.6-1.6,4-1.6,5.6,0c0.8,0.8,1.2,2,1.2,2.8
	c0,1.2-0.4,2-1.2,2.8C84,185.4,83.2,185.8,82,185.8z"/>
<path d="M494,325.8H22c-10.4,0-22-8.8-22-20v-4c0-11.6,11.6-20,22-20h472c10.4,0,18,8,18,20v4C512,317.4,504.4,325.8,494,325.8z
	 M22,289.8c-6.4,0-14,5.2-14,12v4c0,6,6.8,12,14,12h472c6.8,0,10-6,10-12v-4c0-5.6-2.8-12-10-12H22z"/>
<g>
</g>
<g>
</g>
<g>
</g>
<g>
</g>
<g>
</g>
<g>
</g>
<g>
</g>
<g>
</g>
<g>
</g>
<g>
</g>
<g>
</g>
<g>
</g>
<g>
</g>
<g>
</g>
<g>
</g>
</svg>
